<?xml version="1.0" encoding="utf-8"?>
<!-- Generator: Adobe Illustrator 16.0.4, SVG Export Plug-In . SVG Version: 6.00 Build 0)  -->
<!DOCTYPE svg PUBLIC "-//W3C//DTD SVG 1.1//EN" "http://www.w3.org/Graphics/SVG/1.1/DTD/svg11.dtd">
<svg version="1.1" xmlns="http://www.w3.org/2000/svg" xmlns:xlink="http://www.w3.org/1999/xlink" x="0px" y="0px" width="40px"
	 height="40px" viewBox="0 0 40 40" enable-background="new 0 0 40 40" xml:space="preserve">
<g id="Layer_3" display="none">
	<rect x="-40.083" y="-37" display="inline" fill="#231F20" width="500" height="118"/>
</g>
<g id="_x34_0_x__x_40">
	<g>
		<path fill="#AEADAE" stroke="#AEADAE" stroke-miterlimit="10" d="M20.366,0h-0.371C9.169,0,0.203,8.808,0.003,19.636
			C-0.197,30.663,8.612,39.798,19.64,40h0.369c10.825,0,19.793-8.811,19.988-19.636C40.198,9.337,31.391,0.205,20.366,0z
			 M20.009,38.567l-0.346-0.007C9.429,38.379,1.253,29.899,1.439,19.662C1.624,9.61,9.948,1.437,19.995,1.437l0.344,0.003
			c10.234,0.186,18.409,8.661,18.223,18.894C38.38,30.39,30.057,38.567,20.009,38.567z"/>
		<path fill="#AEADAE" stroke="#AEADAE" stroke-miterlimit="10" d="M28.116,14.525l-9.895,9.543l-6.195-6.423
			c-0.273-0.288-0.729-0.295-1.012-0.018c-0.287,0.273-0.293,0.726-0.02,1.016l6.692,6.937c0.137,0.14,0.312,0.276,0.518,0.219
			c0.185,0,0.364-0.072,0.495-0.201l10.411-10.042c0.285-0.273,0.294-0.729,0.021-1.013C28.854,14.259,28.399,14.252,28.116,14.525z
			"/>
	</g>
</g>
</svg>
